<svg width="1156" height="702" xmlns="http://www.w3.org/2000/svg"><g><path d="M-69.61719933897257,-106.95028273388743L-94.07494481652975,407.7179853525013L-48.10905824415386,234.5351869147271Z" fill="#fff9b1" stroke="#fff9b1"/><path d="M-69.61719933897257,-106.95028273388743L-48.10905824415386,234.5351869147271L-18.9618899859488,105.02002615481615Z" fill="#ffffce" stroke="#ffffce"/><path d="M-69.61719933897257,-106.95028273388743L-18.9618899859488,105.02002615481615L36.08417711220682,-81.8374065309763Z" fill="#ffffe9" stroke="#ffffe9"/><path d="M-69.61719933897257,-106.95028273388743L36.08417711220682,-81.8374065309763L542.579306345433,-78.50168558768928Z" fill="#fff3c9" stroke="#fff3c9"/><path d="M-69.61719933897257,-106.95028273388743L542.579306345433,-78.50168558768928L649.8269221745431,-91.68549343943596Z" fill="#ffdaa8" stroke="#ffdaa8"/><path d="M-69.61719933897257,-106.95028273388743L649.8269221745431,-91.68549343943596L1017.2712151799351,-92.6242315582931Z" fill="#fec29c" stroke="#fec29c"/><path d="M36.08417711220682,-81.8374065309763L-18.9618899859488,105.02002615481615L111.9420550391078,132.6470630429685Z" fill="#fffcc7" stroke="#fffcc7"/><path d="M36.08417711220682,-81.8374065309763L111.9420550391078,132.6470630429685L182.02825072221458,-26.21693205088377Z" fill="#fff8ca" stroke="#fff8ca"/><path d="M36.08417711220682,-81.8374065309763L182.02825072221458,-26.21693205088377L542.579306345433,-78.50168558768928Z" fill="#ffedbb" stroke="#ffedbb"/><path d="M182.02825072221458,-26.21693205088377L111.9420550391078,132.6470630429685L243.9321357384324,78.9801564719528Z" fill="#fff2ad" stroke="#fff2ad"/><path d="M182.02825072221458,-26.21693205088377L243.9321357384324,78.9801564719528L383.11554671265185,62.51676796004176Z" fill="#ffeaa6" stroke="#ffeaa6"/><path d="M182.02825072221458,-26.21693205088377L383.11554671265185,62.51676796004176L430.75633065775037,-22.31243809685111Z" fill="#ffe1a7" stroke="#ffe1a7"/><path d="M182.02825072221458,-26.21693205088377L430.75633065775037,-22.31243809685111L542.579306345433,-78.50168558768928Z" fill="#ffd9a6" stroke="#ffd9a6"/><path d="M430.75633065775037,-22.31243809685111L383.11554671265185,62.51676796004176L541.4689876511693,57.25644794292748Z" fill="#fecf91" stroke="#fecf91"/><path d="M430.75633065775037,-22.31243809685111L541.4689876511693,57.25644794292748L542.579306345433,-78.50168558768928Z" fill="#fec89d" stroke="#fec89d"/><path d="M542.579306345433,-78.50168558768928L541.4689876511693,57.25644794292748L649.8269221745431,-91.68549343943596Z" fill="#feb799" stroke="#feb799"/><path d="M649.8269221745431,-91.68549343943596L541.4689876511693,57.25644794292748L686.4868226833642,94.2244341596961Z" fill="#feab89" stroke="#feab89"/><path d="M649.8269221745431,-91.68549343943596L686.4868226833642,94.2244341596961L769.5270857401192,67.39863010123372Z" fill="#f89b83" stroke="#f89b83"/><path d="M649.8269221745431,-91.68549343943596L769.5270857401192,67.39863010123372L844.0981657616794,-46.990132788196206Z" fill="#f3908f" stroke="#f3908f"/><path d="M649.8269221745431,-91.68549343943596L844.0981657616794,-46.990132788196206L1017.2712151799351,-92.6242315582931Z" fill="#e78690" stroke="#e78690"/><path d="M844.0981657616794,-46.990132788196206L769.5270857401192,67.39863010123372L1015.0664811115712,82.97463783994317Z" fill="#e28280" stroke="#e28280"/><path d="M844.0981657616794,-46.990132788196206L1015.0664811115712,82.97463783994317L1017.2712151799351,-92.6242315582931Z" fill="#d08093" stroke="#d08093"/><path d="M1017.2712151799351,-92.6242315582931L1015.0664811115712,82.97463783994317L1158.5080196522176,-39.46386784315109Z" fill="#b78092" stroke="#b78092"/><path d="M1017.2712151799351,-92.6242315582931L1158.5080196522176,-39.46386784315109L1317.2121091838926,-81.20953749865294Z" fill="#9f8093" stroke="#9f8093"/><path d="M1158.5080196522176,-39.46386784315109L1015.0664811115712,82.97463783994317L1066.2467080447823,105.98059424199164Z" fill="#b3807c" stroke="#b3807c"/><path d="M1158.5080196522176,-39.46386784315109L1066.2467080447823,105.98059424199164L1325.838086809963,132.2198674455285Z" fill="#9b8077" stroke="#9b8077"/><path d="M1158.5080196522176,-39.46386784315109L1325.838086809963,132.2198674455285L1317.2121091838926,-81.20953749865294Z" fill="#87808b" stroke="#87808b"/><path d="M-18.9618899859488,105.02002615481615L-48.10905824415386,234.5351869147271L79.52333369292319,207.77711329981685Z" fill="#fff7a4" stroke="#fff7a4"/><path d="M-18.9618899859488,105.02002615481615L79.52333369292319,207.77711329981685L111.9420550391078,132.6470630429685Z" fill="#fffba5" stroke="#fffba5"/><path d="M111.9420550391078,132.6470630429685L79.52333369292319,207.77711329981685L168.93237987533212,253.10535421594977Z" fill="#ffeb8b" stroke="#ffeb8b"/><path d="M111.9420550391078,132.6470630429685L168.93237987533212,253.10535421594977L243.9321357384324,78.9801564719528Z" fill="#fff390" stroke="#fff390"/><path d="M243.9321357384324,78.9801564719528L168.93237987533212,253.10535421594977L336.17412912659347,194.3920456711203Z" fill="#ffe77c" stroke="#ffe77c"/><path d="M243.9321357384324,78.9801564719528L336.17412912659347,194.3920456711203L383.11554671265185,62.51676796004176Z" fill="#ffe385" stroke="#ffe385"/><path d="M383.11554671265185,62.51676796004176L336.17412912659347,194.3920456711203L519.1033829189837,222.19997973181307Z" fill="#ffd46a" stroke="#ffd46a"/><path d="M383.11554671265185,62.51676796004176L519.1033829189837,222.19997973181307L541.4689876511693,57.25644794292748Z" fill="#fecb74" stroke="#fecb74"/><path d="M541.4689876511693,57.25644794292748L519.1033829189837,222.19997973181307L686.4868226833642,94.2244341596961Z" fill="#feb56a" stroke="#feb56a"/><path d="M686.4868226833642,94.2244341596961L519.1033829189837,222.19997973181307L618.0252649448812,254.98970596119761Z" fill="#fea653" stroke="#fea653"/><path d="M686.4868226833642,94.2244341596961L618.0252649448812,254.98970596119761L775.0899084750563,228.42336248606443Z" fill="#f9924d" stroke="#f9924d"/><path d="M686.4868226833642,94.2244341596961L775.0899084750563,228.42336248606443L769.5270857401192,67.39863010123372Z" fill="#f4925f" stroke="#f4925f"/><path d="M769.5270857401192,67.39863010123372L775.0899084750563,228.42336248606443L992.4276012741029,190.67658305168152Z" fill="#e68456" stroke="#e68456"/><path d="M769.5270857401192,67.39863010123372L992.4276012741029,190.67658305168152L1015.0664811115712,82.97463783994317Z" fill="#d88067" stroke="#d88067"/><path d="M1015.0664811115712,82.97463783994317L992.4276012741029,190.67658305168152L1066.2467080447823,105.98059424199164Z" fill="#c08063" stroke="#c08063"/><path d="M1066.2467080447823,105.98059424199164L992.4276012741029,190.67658305168152L1166.7561518400908,268.0549507588148Z" fill="#b4774f" stroke="#b4774f"/><path d="M1066.2467080447823,105.98059424199164L1166.7561518400908,268.0549507588148L1301.6012637410313,190.6264801416546Z" fill="#9c774f" stroke="#9c774f"/><path d="M1066.2467080447823,105.98059424199164L1301.6012637410313,190.6264801416546L1325.838086809963,132.2198674455285Z" fill="#8f805e" stroke="#8f805e"/><path d="M1325.838086809963,132.2198674455285L1301.6012637410313,190.6264801416546L1327.8839082084596,340.5508600641042Z" fill="#806e44" stroke="#806e44"/><path d="M1325.838086809963,132.2198674455285L1327.8839082084596,340.5508600641042L1333.885296061635,499.1530505474657Z" fill="#804e35" stroke="#804e35"/><path d="M-48.10905824415386,234.5351869147271L-94.07494481652975,407.7179853525013L89.36145147308707,378.70864377357066Z" fill="#ffc689" stroke="#ffc689"/><path d="M-48.10905824415386,234.5351869147271L89.36145147308707,378.70864377357066L79.52333369292319,207.77711329981685Z" fill="#ffdc87" stroke="#ffdc87"/><path d="M79.52333369292319,207.77711329981685L89.36145147308707,378.70864377357066L168.93237987533212,253.10535421594977Z" fill="#ffd57a" stroke="#ffd57a"/><path d="M168.93237987533212,253.10535421594977L89.36145147308707,378.70864377357066L199.9306766409427,434.021104099229Z" fill="#ffb46a" stroke="#ffb46a"/><path d="M168.93237987533212,253.10535421594977L199.9306766409427,434.021104099229L336.17412912659347,194.3920456711203Z" fill="#ffc764" stroke="#ffc764"/><path d="M336.17412912659347,194.3920456711203L199.9306766409427,434.021104099229L424.24637351185083,404.28591426461935Z" fill="#ffa850" stroke="#ffa850"/><path d="M336.17412912659347,194.3920456711203L424.24637351185083,404.28591426461935L496.504698805511,359.6222647279501Z" fill="#ffa547" stroke="#ffa547"/><path d="M336.17412912659347,194.3920456711203L496.504698805511,359.6222647279501L519.1033829189837,222.19997973181307Z" fill="#feb34c" stroke="#feb34c"/><path d="M519.1033829189837,222.19997973181307L496.504698805511,359.6222647279501L618.0252649448812,254.98970596119761Z" fill="#fe9d44" stroke="#fe9d44"/><path d="M618.0252649448812,254.98970596119761L496.504698805511,359.6222647279501L702.799220122397,399.8888434935361Z" fill="#fe7838" stroke="#fe7838"/><path d="M618.0252649448812,254.98970596119761L702.799220122397,399.8888434935361L775.0899084750563,228.42336248606443Z" fill="#f87538" stroke="#f87538"/><path d="M775.0899084750563,228.42336248606443L702.799220122397,399.8888434935361L822.3373248428106,316.02430938743055Z" fill="#f26131" stroke="#f26131"/><path d="M775.0899084750563,228.42336248606443L822.3373248428106,316.02430938743055L992.4276012741029,190.67658305168152Z" fill="#e46b3d" stroke="#e46b3d"/><path d="M992.4276012741029,190.67658305168152L822.3373248428106,316.02430938743055L1034.4914703816175,373.7212070915848Z" fill="#d25939" stroke="#d25939"/><path d="M992.4276012741029,190.67658305168152L1034.4914703816175,373.7212070915848L1166.7561518400908,268.0549507588148Z" fill="#b75e3b" stroke="#b75e3b"/><path d="M1166.7561518400908,268.0549507588148L1034.4914703816175,373.7212070915848L1170.571732353419,315.5372101441026Z" fill="#a95136" stroke="#a95136"/><path d="M1166.7561518400908,268.0549507588148L1170.571732353419,315.5372101441026L1327.8839082084596,340.5508600641042Z" fill="#925537" stroke="#925537"/><path d="M1166.7561518400908,268.0549507588148L1327.8839082084596,340.5508600641042L1301.6012637410313,190.6264801416546Z" fill="#87613c" stroke="#87613c"/><path d="M-94.07494481652975,407.7179853525013L-90.94216715544462,883.0690463259816L-27.150935847312212,678.0531501676887Z" fill="#bd8089" stroke="#bd8089"/><path d="M-94.07494481652975,407.7179853525013L-27.150935847312212,678.0531501676887L-18.55987759307027,554.6358101628721Z" fill="#f08085" stroke="#f08085"/><path d="M-94.07494481652975,407.7179853525013L-18.55987759307027,554.6358101628721L89.36145147308707,378.70864377357066Z" fill="#ff997b" stroke="#ff997b"/><path d="M89.36145147308707,378.70864377357066L-18.55987759307027,554.6358101628721L79.15190261788666,561.2332759425044Z" fill="#f98771" stroke="#f98771"/><path d="M89.36145147308707,378.70864377357066L79.15190261788666,561.2332759425044L166.85394912958145,512.2027067374438Z" fill="#fc8666" stroke="#fc8666"/><path d="M89.36145147308707,378.70864377357066L166.85394912958145,512.2027067374438L199.9306766409427,434.021104099229Z" fill="#ff9060" stroke="#ff9060"/><path d="M199.9306766409427,434.021104099229L166.85394912958145,512.2027067374438L378.0695097986609,575.2133889030665Z" fill="#f77651" stroke="#f77651"/><path d="M199.9306766409427,434.021104099229L378.0695097986609,575.2133889030665L424.24637351185083,404.28591426461935Z" fill="#fe7240" stroke="#fe7240"/><path d="M424.24637351185083,404.28591426461935L378.0695097986609,575.2133889030665L564.9661372415721,508.8590970542282Z" fill="#f95a35" stroke="#f95a35"/><path d="M424.24637351185083,404.28591426461935L564.9661372415721,508.8590970542282L496.504698805511,359.6222647279501Z" fill="#fe6b35" stroke="#fe6b35"/><path d="M496.504698805511,359.6222647279501L564.9661372415721,508.8590970542282L702.799220122397,399.8888434935361Z" fill="#fe572f" stroke="#fe572f"/><path d="M702.799220122397,399.8888434935361L564.9661372415721,508.8590970542282L689.5428729336709,467.513276534155Z" fill="#fd3a27" stroke="#fd3a27"/><path d="M702.799220122397,399.8888434935361L689.5428729336709,467.513276534155L851.3442319259048,578.3518341835588Z" fill="#f12022" stroke="#f12022"/><path d="M702.799220122397,399.8888434935361L851.3442319259048,578.3518341835588L822.3373248428106,316.02430938743055Z" fill="#ee2a24" stroke="#ee2a24"/><path d="M822.3373248428106,316.02430938743055L851.3442319259048,578.3518341835588L1034.4914703816175,373.7212070915848Z" fill="#dd2329" stroke="#dd2329"/><path d="M1034.4914703816175,373.7212070915848L851.3442319259048,578.3518341835588L1009.9441281985492,565.5327231902629Z" fill="#c70927" stroke="#c70927"/><path d="M1034.4914703816175,373.7212070915848L1009.9441281985492,565.5327231902629L1156.8475388456136,503.0225062184036Z" fill="#b40f26" stroke="#b40f26"/><path d="M1034.4914703816175,373.7212070915848L1156.8475388456136,503.0225062184036L1170.571732353419,315.5372101441026Z" fill="#aa2c2c" stroke="#aa2c2c"/><path d="M1170.571732353419,315.5372101441026L1156.8475388456136,503.0225062184036L1327.8839082084596,340.5508600641042Z" fill="#92302d" stroke="#92302d"/><path d="M1327.8839082084596,340.5508600641042L1156.8475388456136,503.0225062184036L1333.885296061635,499.1530505474657Z" fill="#851927" stroke="#851927"/><path d="M-18.55987759307027,554.6358101628721L-27.150935847312212,678.0531501676887L80.99341236054897,643.4380724932998Z" fill="#cb7f7b" stroke="#cb7f7b"/><path d="M-18.55987759307027,554.6358101628721L80.99341236054897,643.4380724932998L79.15190261788666,561.2332759425044Z" fill="#dd7c75" stroke="#dd7c75"/><path d="M79.15190261788666,561.2332759425044L80.99341236054897,643.4380724932998L199.5332439802587,663.6127079464495Z" fill="#cc7768" stroke="#cc7768"/><path d="M79.15190261788666,561.2332759425044L199.5332439802587,663.6127079464495L166.85394912958145,512.2027067374438Z" fill="#e17563" stroke="#e17563"/><path d="M166.85394912958145,512.2027067374438L199.5332439802587,663.6127079464495L378.0695097986609,575.2133889030665Z" fill="#de6d53" stroke="#de6d53"/><path d="M378.0695097986609,575.2133889030665L199.5332439802587,663.6127079464495L383.9637922681868,669.6855290047824Z" fill="#c66347" stroke="#c66347"/><path d="M378.0695097986609,575.2133889030665L383.9637922681868,669.6855290047824L493.15217359922826,706.7969756852835Z" fill="#bf543b" stroke="#bf543b"/><path d="M378.0695097986609,575.2133889030665L493.15217359922826,706.7969756852835L564.9661372415721,508.8590970542282Z" fill="#d74c37" stroke="#d74c37"/><path d="M564.9661372415721,508.8590970542282L493.15217359922826,706.7969756852835L655.9923894144595,644.1461290977895Z" fill="#cd3931" stroke="#cd3931"/><path d="M564.9661372415721,508.8590970542282L655.9923894144595,644.1461290977895L689.5428729336709,467.513276534155Z" fill="#f02a2c" stroke="#f02a2c"/><path d="M689.5428729336709,467.513276534155L655.9923894144595,644.1461290977895L851.3442319259048,578.3518341835588Z" fill="#de1527" stroke="#de1527"/><path d="M851.3442319259048,578.3518341835588L655.9923894144595,644.1461290977895L781.1424444615841,722.9987450502813Z" fill="#b30f25" stroke="#b30f25"/><path d="M851.3442319259048,578.3518341835588L781.1424444615841,722.9987450502813L956.657746732235,674.2295502964407Z" fill="#a00428" stroke="#a00428"/><path d="M851.3442319259048,578.3518341835588L956.657746732235,674.2295502964407L1009.9441281985492,565.5327231902629Z" fill="#aa002a" stroke="#aa002a"/><path d="M1009.9441281985492,565.5327231902629L956.657746732235,674.2295502964407L1090.4340922739357,615.1126658543944Z" fill="#91002a" stroke="#91002a"/><path d="M1009.9441281985492,565.5327231902629L1090.4340922739357,615.1126658543944L1156.8475388456136,503.0225062184036Z" fill="#9c002a" stroke="#9c002a"/><path d="M1156.8475388456136,503.0225062184036L1090.4340922739357,615.1126658543944L1223.0826224572957,702.4503964092582Z" fill="#76002a" stroke="#76002a"/><path d="M1156.8475388456136,503.0225062184036L1223.0826224572957,702.4503964092582L1333.885296061635,499.1530505474657Z" fill="#74002a" stroke="#74002a"/><path d="M1333.885296061635,499.1530505474657L1223.0826224572957,702.4503964092582L1259.6113975066692,784.2435252852738Z" fill="#40002a" stroke="#40002a"/><path d="M-27.150935847312212,678.0531501676887L-90.94216715544462,883.0690463259816L128.1837103050202,790.5752480495721Z" fill="#81807c" stroke="#81807c"/><path d="M-27.150935847312212,678.0531501676887L128.1837103050202,790.5752480495721L80.99341236054897,643.4380724932998Z" fill="#a67b72" stroke="#a67b72"/><path d="M80.99341236054897,643.4380724932998L128.1837103050202,790.5752480495721L199.5332439802587,663.6127079464495Z" fill="#a97665" stroke="#a97665"/><path d="M199.5332439802587,663.6127079464495L128.1837103050202,790.5752480495721L236.48837693966925,873.033058270812Z" fill="#85725d" stroke="#85725d"/><path d="M199.5332439802587,663.6127079464495L236.48837693966925,873.033058270812L383.9637922681868,669.6855290047824Z" fill="#976a4f" stroke="#976a4f"/><path d="M383.9637922681868,669.6855290047824L236.48837693966925,873.033058270812L407.8075528051704,817.5574526097625Z" fill="#7f6044" stroke="#7f6044"/><path d="M383.9637922681868,669.6855290047824L407.8075528051704,817.5574526097625L493.15217359922826,706.7969756852835Z" fill="#99533a" stroke="#99533a"/><path d="M493.15217359922826,706.7969756852835L407.8075528051704,817.5574526097625L500.6021908298135,800.3155398275703Z" fill="#844d38" stroke="#844d38"/><path d="M493.15217359922826,706.7969756852835L500.6021908298135,800.3155398275703L655.9923894144595,644.1461290977895Z" fill="#9f3e32" stroke="#9f3e32"/><path d="M655.9923894144595,644.1461290977895L500.6021908298135,800.3155398275703L672.5453517213464,846.5129874274135Z" fill="#892f2e" stroke="#892f2e"/><path d="M655.9923894144595,644.1461290977895L672.5453517213464,846.5129874274135L781.1424444615841,722.9987450502813Z" fill="#8f1b28" stroke="#8f1b28"/><path d="M781.1424444615841,722.9987450502813L672.5453517213464,846.5129874274135L795.7585075870156,869.6963202115148Z" fill="#741126" stroke="#741126"/><path d="M781.1424444615841,722.9987450502813L795.7585075870156,869.6963202115148L994.4041216559708,817.7552710846066Z" fill="#650528" stroke="#650528"/><path d="M781.1424444615841,722.9987450502813L994.4041216559708,817.7552710846066L956.657746732235,674.2295502964407Z" fill="#72002a" stroke="#72002a"/><path d="M956.657746732235,674.2295502964407L994.4041216559708,817.7552710846066L1090.4340922739357,615.1126658543944Z" fill="#6b002a" stroke="#6b002a"/><path d="M1090.4340922739357,615.1126658543944L994.4041216559708,817.7552710846066L1110.4214156325907,840.2475640363991Z" fill="#45002a" stroke="#45002a"/><path d="M1090.4340922739357,615.1126658543944L1110.4214156325907,840.2475640363991L1223.0826224572957,702.4503964092582Z" fill="#45002a" stroke="#45002a"/><path d="M1223.0826224572957,702.4503964092582L1110.4214156325907,840.2475640363991L1259.6113975066692,784.2435252852738Z" fill="#1d002a" stroke="#1d002a"/><path d="M-90.94216715544462,883.0690463259816L795.7585075870156,869.6963202115148L236.48837693966925,873.033058270812Z" fill="#7f6448" stroke="#7f6448"/><path d="M-90.94216715544462,883.0690463259816L236.48837693966925,873.033058270812L128.1837103050202,790.5752480495721Z" fill="#80796d" stroke="#80796d"/><path d="M236.48837693966925,873.033058270812L795.7585075870156,869.6963202115148L672.5453517213464,846.5129874274135Z" fill="#7f3931" stroke="#7f3931"/><path d="M236.48837693966925,873.033058270812L672.5453517213464,846.5129874274135L407.8075528051704,817.5574526097625Z" fill="#7f5239" stroke="#7f5239"/><path d="M407.8075528051704,817.5574526097625L672.5453517213464,846.5129874274135L500.6021908298135,800.3155398275703Z" fill="#7f4434" stroke="#7f4434"/><path d="M795.7585075870156,869.6963202115148L1110.4214156325907,840.2475640363991L994.4041216559708,817.7552710846066Z" fill="#4f002a" stroke="#4f002a"/></g></svg>